<svg width="76" height="60" viewBox="0 0 76 60" fill="none" xmlns="http://www.w3.org/2000/svg">
<path d="M34.2944 0.0536769L11.4088 42.5322H3.05372C-0.724222 41.5794 -0.215653 35.5186 0.510875 32.6073L16.1312 4.81762C18.4561 0.371274 22.1856 -0.210987 23.7598 0.0536769H34.2944Z" fill="#EDF2F4"/>
<path d="M27.7557 15.5365L22.67 24.2704L38.6536 54.8391C41.2691 58.6502 44.1026 59.8677 45.1924 60H57.5433L36.474 19.9034C34.1491 15.1395 29.6931 15.0072 27.7557 15.5365Z" fill="#EDF2F4"/>
<path d="M31.3883 44.5172H3.05372L8.13943 54.8391C9.59248 57.6974 12.3775 59.4707 13.5884 60H31.3883C35.7475 57.7768 35.8686 53.2511 35.3842 51.2661L31.3883 44.5172Z" fill="#EDF2F4"/>
<path d="M38.6536 21.4914L43.376 30.6223H62.9923L66.9882 21.4914C66.407 17.9979 62.8712 16.0658 61.176 15.5365H44.4658C41.5597 15.8541 39.3801 19.6388 38.6536 21.4914Z" fill="#EDF2F4"/>
<path d="M68.4413 23.0794L54.274 50.4721L58.2699 58.412C61.4666 60.9528 64.9297 58.9413 66.2617 57.618L74.2535 43.3262C75.7065 39.515 75.3433 36.7096 74.98 35.7833L68.4413 23.0794Z" fill="#EDF2F4"/>
</svg>
